<svg width="23" height="26" viewBox="0 0 23 26" fill="none" xmlns="http://www.w3.org/2000/svg">
<g clip-path="url(#clip0_3_126)">
<path d="M11.5535 3.24468C12.4461 3.24468 13.1697 2.51833 13.1697 1.62234C13.1697 0.726346 12.4461 0 11.5535 0C10.661 0 9.93737 0.726346 9.93737 1.62234C9.93737 2.51833 10.661 3.24468 11.5535 3.24468Z" fill="white"/>
<path d="M11.5535 8.933C12.4461 8.933 13.1697 8.20665 13.1697 7.31066C13.1697 6.41467 12.4461 5.68832 11.5535 5.68832C10.661 5.68832 9.93737 6.41467 9.93737 7.31066C9.93737 8.20665 10.661 8.933 11.5535 8.933Z" fill="white"/>
<path d="M11.5535 14.6213C12.4461 14.6213 13.1697 13.895 13.1697 12.999C13.1697 12.103 12.4461 11.3766 11.5535 11.3766C10.661 11.3766 9.93737 12.103 9.93737 12.999C9.93737 13.895 10.661 14.6213 11.5535 14.6213Z" fill="white"/>
<path d="M11.5535 20.3096C12.4461 20.3096 13.1697 19.5833 13.1697 18.6873C13.1697 17.7913 12.4461 17.065 11.5535 17.065C10.661 17.065 9.93737 17.7913 9.93737 18.6873C9.93737 19.5833 10.661 20.3096 11.5535 20.3096Z" fill="white"/>
<path d="M1.61616 20.3096C2.50874 20.3096 3.23232 19.5833 3.23232 18.6873C3.23232 17.7913 2.50874 17.065 1.61616 17.065C0.72358 17.065 0 17.7913 0 18.6873C0 19.5833 0.72358 20.3096 1.61616 20.3096Z" fill="#5A5A5A"/>
<path d="M11.5535 26C12.4461 26 13.1697 25.2737 13.1697 24.3777C13.1697 23.4817 12.4461 22.7553 11.5535 22.7553C10.661 22.7553 9.93737 23.4817 9.93737 24.3777C9.93737 25.2737 10.661 26 11.5535 26Z" fill="white"/>
<path d="M21.3838 20.3096C22.2764 20.3096 23 19.5833 23 18.6873C23 17.7913 22.2764 17.065 21.3838 17.065C20.4913 17.065 19.7677 17.7913 19.7677 18.6873C19.7677 19.5833 20.4913 20.3096 21.3838 20.3096Z" fill="#5A5A5A"/>
<path d="M21.3838 14.6213C22.2764 14.6213 23 13.895 23 12.999C23 12.103 22.2764 11.3766 21.3838 11.3766C20.4913 11.3766 19.7677 12.103 19.7677 12.999C19.7677 13.895 20.4913 14.6213 21.3838 14.6213Z" fill="#5A5A5A"/>
<path d="M21.3838 8.933C22.2764 8.933 23 8.20665 23 7.31066C23 6.41467 22.2764 5.68832 21.3838 5.68832C20.4913 5.68832 19.7677 6.41467 19.7677 7.31066C19.7677 8.20665 20.4913 8.933 21.3838 8.933Z" fill="white"/>
<path d="M1.61616 8.933C2.50874 8.933 3.23232 8.20665 3.23232 7.31066C3.23232 6.41467 2.50874 5.68832 1.61616 5.68832C0.72358 5.68832 0 6.41467 0 7.31066C0 8.20665 0.72358 8.933 1.61616 8.933Z" fill="white"/>
<path d="M1.61616 14.6213C2.50874 14.6213 3.23232 13.895 3.23232 12.999C3.23232 12.103 2.50874 11.3766 1.61616 11.3766C0.72358 11.3766 0 12.103 0 12.999C0 13.895 0.72358 14.6213 1.61616 14.6213Z" fill="#5A5A5A"/>
<path d="M6.54949 11.8512C7.44208 11.8512 8.16566 11.1248 8.16566 10.2288C8.16566 9.33285 7.44208 8.6065 6.54949 8.6065C5.65691 8.6065 4.93333 9.33285 4.93333 10.2288C4.93333 11.1248 5.65691 11.8512 6.54949 11.8512Z" fill="#5A5A5A"/>
<path d="M16.4384 11.8512C17.331 11.8512 18.0545 11.1248 18.0545 10.2288C18.0545 9.33285 17.331 8.6065 16.4384 8.6065C15.5458 8.6065 14.8222 9.33285 14.8222 10.2288C14.8222 11.1248 15.5458 11.8512 16.4384 11.8512Z" fill="#5A5A5A"/>
<path opacity="0.3" d="M6.54949 17.5963C7.44208 17.5963 8.16566 16.8699 8.16566 15.9739C8.16566 15.078 7.44208 14.3516 6.54949 14.3516C5.65691 14.3516 4.93333 15.078 4.93333 15.9739C4.93333 16.8699 5.65691 17.5963 6.54949 17.5963Z" fill="white"/>
<path opacity="0.3" d="M16.4384 17.5963C17.331 17.5963 18.0545 16.8699 18.0545 15.9739C18.0545 15.078 17.331 14.3516 16.4384 14.3516C15.5458 14.3516 14.8222 15.078 14.8222 15.9739C14.8222 16.8699 15.5458 17.5963 16.4384 17.5963Z" fill="white"/>
<path d="M6.54949 23.3394C7.44208 23.3394 8.16566 22.613 8.16566 21.717C8.16566 20.821 7.44208 20.0947 6.54949 20.0947C5.65691 20.0947 4.93333 20.821 4.93333 21.717C4.93333 22.613 5.65691 23.3394 6.54949 23.3394Z" fill="#5A5A5A"/>
<path d="M16.4384 23.3394C17.331 23.3394 18.0545 22.613 18.0545 21.717C18.0545 20.821 17.331 20.0947 16.4384 20.0947C15.5458 20.0947 14.8222 20.821 14.8222 21.717C14.8222 22.613 15.5458 23.3394 16.4384 23.3394Z" fill="#5A5A5A"/>
<path d="M6.54949 6.1081C7.44208 6.1081 8.16566 5.38176 8.16566 4.48577C8.16566 3.58977 7.44208 2.86343 6.54949 2.86343C5.65691 2.86343 4.93333 3.58977 4.93333 4.48577C4.93333 5.38176 5.65691 6.1081 6.54949 6.1081Z" fill="white"/>
<path d="M16.4384 6.1081C17.331 6.1081 18.0545 5.38176 18.0545 4.48577C18.0545 3.58977 17.331 2.86343 16.4384 2.86343C15.5458 2.86343 14.8222 3.58977 14.8222 4.48577C14.8222 5.38176 15.5458 6.1081 16.4384 6.1081Z" fill="white"/>
</g>
<defs>
<clipPath id="clip0_3_126">
<rect width="23" height="26" fill="white"/>
</clipPath>
</defs>
</svg>
